<svg xmlns="http://www.w3.org/2000/svg" width="281" height="220" viewBox="0 0 281 220">
  <g id="vestido" transform="translate(-230 -676)">
    <rect id="Rectangle_48" data-name="Rectangle 48" width="281" height="220" transform="translate(230 676)" fill="#fff" opacity="0"/>
    <g id="capa" transform="translate(231.5 692)">
      <g id="Group_6" data-name="Group 6">
        <path id="_027-nightgown" data-name="027-nightgown" d="M52.734,188.007c1.445.258,35.566,6.317,47.562,6.317s46.117-6.059,47.562-6.317a3.134,3.134,0,0,0,2.564-3.441l-12.331-107.9c2.393-2.123,6.084-7.032,6.084-17.118,0-3.647-4.525-15.133-6.269-19.42V9.4a3.134,3.134,0,1,0-6.269,0V37.611H112.833a3.134,3.134,0,0,0-2.216.918L100.3,48.85,89.975,38.529a3.134,3.134,0,0,0-2.216-.918H68.954V9.4a3.134,3.134,0,0,0-6.269,0V40.131c-1.743,4.287-6.269,15.774-6.269,19.42a27.047,27.047,0,0,0,6.131,16.694l-12.38,108.32a3.134,3.134,0,0,0,2.567,3.441Zm47.562.049c-9.489,0-34.942-4.231-43.564-5.715l.692-6.059c10.853,1.846,33.542,5.5,42.872,5.5s32.019-3.659,42.872-5.5l.692,6.059C135.239,183.824,109.788,188.055,100.3,188.055ZM67.935,43.88H86.462L98.081,55.5a3.134,3.134,0,0,0,4.433,0L114.131,43.88h18.526c2.642,6.627,5.232,14.009,5.25,15.671,0,8.227-2.9,11.525-4.1,12.537H67.253a20.842,20.842,0,0,1-4.568-12.537C62.7,57.889,65.292,50.506,67.935,43.88Zm.682,34.477h63.359l10.479,91.688c-8.932,1.521-33.031,5.474-42.159,5.474s-33.227-3.953-42.159-5.474Z" transform="translate(32.205 -6.268)"/>
      </g>
    </g>
  </g>
</svg>
