<svg xmlns="http://www.w3.org/2000/svg" width="281" height="220" viewBox="0 0 281 220">
  <g id="intima" transform="translate(-560 -750)">
    <rect id="Rectangle_49" data-name="Rectangle 49" width="281" height="220" transform="translate(560 750)" fill="#fff" opacity="0"/>
    <path id="roupas-intimas" d="M240.965,183.691l-7.5-67.97a3.89,3.89,0,0,0-4.1-3.7c-.738.084-74.117,8.474-100.87,8.474s-100.132-8.39-100.87-8.474a3.888,3.888,0,0,0-4.1,3.7l-7.5,67.97a4.376,4.376,0,0,0,2.046,4.321v0a308.177,308.177,0,0,1,88.9,75.524c.018.023.038.042.056.064q.076.09.156.175c.039.041.078.082.119.122.056.053.115.106.174.159.04.035.08.07.121.1.066.053.135.1.2.148.037.026.074.053.111.076a2.779,2.779,0,0,0,.244.14c.03.016.06.035.091.05.094.046.191.087.289.125.022.008.043.019.064.027a3.32,3.32,0,0,0,.328.1l.043.013a3.268,3.268,0,0,0,.347.062.311.311,0,0,1,.037.006,3.3,3.3,0,0,0,.389.022h37.5a3.291,3.291,0,0,0,.391-.023.283.283,0,0,0,.037-.006,3.234,3.234,0,0,0,.347-.062l.043-.013a3.33,3.33,0,0,0,.328-.1c.022-.007.043-.018.064-.027.1-.038.195-.079.289-.125.031-.015.06-.033.091-.05.083-.044.165-.089.244-.14.037-.024.074-.053.111-.077.069-.048.137-.1.2-.148.041-.033.081-.068.121-.1.059-.053.118-.1.174-.159.04-.04.08-.081.119-.122q.08-.085.156-.175c.018-.022.038-.041.056-.064a308.177,308.177,0,0,1,88.9-75.524v0a4.376,4.376,0,0,0,2.046-4.321ZM34.859,188.466H38.5c33.475,0,61.331,26.208,66.6,60.452A315.137,315.137,0,0,0,34.859,188.466Zm78.535,67.97C111.333,213.9,78.529,179.97,38.5,179.97H24l6.519-59.083c15.379,1.722,74,8.105,97.981,8.105s82.6-6.383,97.981-8.105L233,179.97h-14.5c-40.03,0-72.835,33.929-74.9,76.466Zm38.5-7.518c5.267-34.244,33.124-60.452,66.6-60.452h3.639A315.137,315.137,0,0,0,151.9,248.918Z" transform="translate(571.502 673)" stroke="#707070" stroke-width="1"/>
  </g>
</svg>
