<svg xmlns="http://www.w3.org/2000/svg" width="280" height="197.316" viewBox="0 0 280 197.316">
  <g id="Group_2" data-name="Group 2" transform="translate(-230 -347.342)">
    <path id="cabides" d="M269.784,195.3,163.822,121.131a41.356,41.356,0,0,0-15.623-6.7v-8.541A32.8,32.8,0,1,0,107.2,74.137a8.2,8.2,0,0,0,16.4,0,16.4,16.4,0,1,1,16.4,16.4,8.2,8.2,0,0,0-8.2,8.2v15.7a41.348,41.348,0,0,0-15.623,6.7L10.217,195.3a23.831,23.831,0,0,0,13.666,43.354H256.117A23.831,23.831,0,0,0,269.784,195.3Zm-6.576,21.758a7.224,7.224,0,0,1-7.09,5.2H23.883a7.433,7.433,0,0,1-4.263-13.523l105.962-74.174a25.143,25.143,0,0,1,28.837,0l105.962,74.173a7.225,7.225,0,0,1,2.826,8.325Z" transform="translate(230 306)"/>
  </g>
</svg>
